<svg xmlns="http://www.w3.org/2000/svg" xmlns:xlink="http://www.w3.org/1999/xlink" contentStyleType="text/css" data-diagram-type="DESCRIPTION" height="2182.8125px" preserveAspectRatio="none" style="width:1328px;height:2182px;background:#FFFFFF;" version="1.1" viewBox="0 0 1328 2182" width="1328.125px" zoomAndPan="magnify"><title>&#1044;&#1080;&#1072;&#1075;&#1088;&#1072;&#1084;&#1084;&#1072; &#1087;&#1088;&#1077;&#1094;&#1077;&#1076;&#1077;&#1085;&#1090;&#1086;&#1074;
&#1047;&#1077;&#1083;&#1105;&#1085;&#1099;&#1081; &#1086;&#1074;&#1072;&#1083; &#171;&#1057;&#1082;&#1072;&#1095;&#1072;&#1090;&#1100; &#1072;&#1088;&#1090;&#1077;&#1092;&#1072;&#1082;&#1090;&#187; &#1088;&#1072;&#1089;&#1082;&#1088;&#1099;&#1074;&#1072;&#1102;&#1090; &#1089;&#1093;&#1077;&#1084;&#1099; 1.2, 1.3 &#1080; 1.4</title><defs/><g><g class="title" data-source-line="25"><text fill="#000000" font-family="DejaVu Sans" font-size="21.875" font-weight="bold" lengthAdjust="spacing" textLength="315.3824" x="496.2044" y="35.9299">&#1044;&#1080;&#1072;&#1075;&#1088;&#1072;&#1084;&#1084;&#1072; &#1087;&#1088;&#1077;&#1094;&#1077;&#1076;&#1077;&#1085;&#1090;&#1086;&#1074;</text><text fill="#000000" font-family="DejaVu Sans" font-size="21.875" font-weight="bold" lengthAdjust="spacing" textLength="867.4805" x="220.1553" y="61.3937">&#1047;&#1077;&#1083;&#1105;&#1085;&#1099;&#1081; &#1086;&#1074;&#1072;&#1083; &#171;&#1057;&#1082;&#1072;&#1095;&#1072;&#1090;&#1100; &#1072;&#1088;&#1090;&#1077;&#1092;&#1072;&#1082;&#1090;&#187; &#1088;&#1072;&#1089;&#1082;&#1088;&#1099;&#1074;&#1072;&#1102;&#1090; &#1089;&#1093;&#1077;&#1084;&#1099; 1.2, 1.3 &#1080; 1.4</text></g><!--cluster SecCrate--><g class="cluster" data-entity="SecCrate" data-source-line="47" data-uid="ent0020" id="cluster_SecCrate"><rect fill="#FBFBF8" height="1956.25" rx="7.8125" ry="7.8125" style="stroke:#3D4A3E;stroke-width:1.5625;" width="525" x="241.0156" y="94.6777"/><text fill="#000000" font-family="DejaVu Sans" font-size="21.875" font-weight="bold" lengthAdjust="spacing" textLength="110.4538" x="448.2887" y="118.1076">SecCrate</text></g><!--entity UC_Pull--><g class="entity" data-entity="UC_Pull" data-source-line="48" data-uid="ent0021" id="entity_UC_Pull"><ellipse cx="371.0128" cy="186.2939" fill="#CDECC8" rx="75.3096" ry="36.9286" style="stroke:#3D4A3E;stroke-width:0.7813;"/><text fill="#000000" font-family="DejaVu Sans" font-size="20.3125" lengthAdjust="spacing" textLength="87.1513" x="327.4371" y="179.0982">&#1057;&#1082;&#1072;&#1095;&#1072;&#1090;&#1100;</text><text fill="#000000" font-family="DejaVu Sans" font-size="20.3125" lengthAdjust="spacing" textLength="103.5858" x="319.2199" y="202.7432">&#1072;&#1088;&#1090;&#1077;&#1092;&#1072;&#1082;&#1090;</text></g><!--entity UC_Push--><g class="entity" data-entity="UC_Push" data-source-line="49" data-uid="ent0022" id="entity_UC_Push"><ellipse cx="610.0652" cy="343.1244" fill="#F7F4EC" rx="105.7683" ry="35.9466" style="stroke:#3D4A3E;stroke-width:0.7813;"/><text fill="#000000" font-family="DejaVu Sans" font-size="20.3125" lengthAdjust="spacing" textLength="152.919" x="533.6057" y="340.8545">&#1054;&#1087;&#1091;&#1073;&#1083;&#1080;&#1082;&#1086;&#1074;&#1072;&#1090;&#1100;</text><text fill="#000000" font-family="DejaVu Sans" font-size="20.3125" lengthAdjust="spacing" textLength="103.5858" x="558.2723" y="364.4995">&#1072;&#1088;&#1090;&#1077;&#1092;&#1072;&#1082;&#1090;</text></g><!--entity UC_Gate--><g class="entity" data-entity="UC_Gate" data-source-line="50" data-uid="ent0023" id="entity_UC_Gate"><ellipse cx="622.0954" cy="499.9556" fill="#F7F4EC" rx="118.5798" ry="35.7467" style="stroke:#3D4A3E;stroke-width:0.7813;"/><text fill="#000000" font-family="DejaVu Sans" font-size="20.3125" lengthAdjust="spacing" textLength="173.41" x="535.3904" y="497.9928">&#1055;&#1088;&#1086;&#1074;&#1077;&#1088;&#1080;&#1090;&#1100; &#1087;&#1083;&#1072;&#1085;</text><text fill="#000000" font-family="DejaVu Sans" font-size="20.3125" lengthAdjust="spacing" textLength="110.6178" x="566.7865" y="521.6378">&#1091;&#1089;&#1090;&#1072;&#1085;&#1086;&#1074;&#1082;&#1080;</text></g><!--entity UC_Login--><g class="entity" data-entity="UC_Login" data-source-line="51" data-uid="ent0024" id="entity_UC_Login"><ellipse cx="649.178" cy="641.2358" fill="#F7F4EC" rx="73.7874" ry="35.6206" style="stroke:#3D4A3E;stroke-width:0.7813;"/><text fill="#000000" font-family="DejaVu Sans" font-size="20.3125" lengthAdjust="spacing" textLength="64.5973" x="616.8793" y="632.0661">&#1042;&#1086;&#1081;&#1090;&#1080;</text><text fill="#000000" font-family="DejaVu Sans" font-size="20.3125" lengthAdjust="spacing" textLength="105.6389" x="596.3585" y="655.7112">&#1074; &#1089;&#1080;&#1089;&#1090;&#1077;&#1084;&#1091;</text></g><!--entity UC_Finding--><g class="entity" data-entity="UC_Finding" data-source-line="52" data-uid="ent0025" id="entity_UC_Finding"><ellipse cx="617.9313" cy="782.739" fill="#F7F4EC" rx="89.4157" ry="37.28" style="stroke:#3D4A3E;stroke-width:0.7813;"/><text fill="#000000" font-family="DejaVu Sans" font-size="20.3125" lengthAdjust="spacing" textLength="109.5963" x="563.1332" y="776.0569">&#1056;&#1072;&#1079;&#1086;&#1073;&#1088;&#1072;&#1090;&#1100;</text><text fill="#000000" font-family="DejaVu Sans" font-size="20.3125" lengthAdjust="spacing" textLength="122.9362" x="556.4632" y="799.702">&#1091;&#1103;&#1079;&#1074;&#1080;&#1084;&#1086;&#1089;&#1090;&#1100;</text></g><!--entity UC_Trust--><g class="entity" data-entity="UC_Trust" data-source-line="53" data-uid="ent0026" id="entity_UC_Trust"><ellipse cx="617.4842" cy="916.2191" fill="#F7F4EC" rx="120.9998" ry="34.8226" style="stroke:#3D4A3E;stroke-width:0.7813;"/><text fill="#000000" font-family="DejaVu Sans" font-size="20.3125" lengthAdjust="spacing" textLength="182.5249" x="526.2217" y="915.7128">&#1055;&#1086;&#1089;&#1090;&#1072;&#1074;&#1080;&#1090;&#1100; &#1084;&#1077;&#1090;&#1082;&#1091;</text><text fill="#000000" font-family="DejaVu Sans" font-size="20.3125" lengthAdjust="spacing" textLength="73.127" x="580.9207" y="939.3578">trusted</text></g><!--entity UC_Policy--><g class="entity" data-entity="UC_Policy" data-source-line="54" data-uid="ent0027" id="entity_UC_Policy"><ellipse cx="615.867" cy="1015.8812" fill="#F7F4EC" rx="124.8513" ry="36.0472" style="stroke:#3D4A3E;stroke-width:0.7813;"/><text fill="#000000" font-family="DejaVu Sans" font-size="20.3125" lengthAdjust="spacing" textLength="181.2057" x="525.2641" y="1013.4579">&#1053;&#1072;&#1089;&#1090;&#1088;&#1086;&#1080;&#1090;&#1100; &#1087;&#1086;&#1088;&#1086;&#1075;</text><text fill="#000000" font-family="DejaVu Sans" font-size="20.3125" lengthAdjust="spacing" textLength="126.1696" x="552.7822" y="1037.1029">&#1073;&#1083;&#1086;&#1082;&#1080;&#1088;&#1086;&#1074;&#1082;&#1080;</text></g><!--entity UC_Audit--><g class="entity" data-entity="UC_Audit" data-source-line="55" data-uid="ent0028" id="entity_UC_Audit"><ellipse cx="641.2344" cy="1115.4812" fill="#F7F4EC" rx="72.0938" ry="35.6472" style="stroke:#3D4A3E;stroke-width:0.7813;"/><text fill="#000000" font-family="DejaVu Sans" font-size="20.3125" lengthAdjust="spacing" textLength="102.961" x="589.7539" y="1113.672">&#1057;&#1084;&#1086;&#1090;&#1088;&#1077;&#1090;&#1100;</text><text fill="#000000" font-family="DejaVu Sans" font-size="20.3125" lengthAdjust="spacing" textLength="63.546" x="609.4614" y="1137.3171">&#1072;&#1091;&#1076;&#1080;&#1090;</text></g><!--entity UC_Repo--><g class="entity" data-entity="UC_Repo" data-source-line="56" data-uid="ent0029" id="entity_UC_Repo"><ellipse cx="641.3812" cy="1249.9296" fill="#F7F4EC" rx="95.6781" ry="35.7206" style="stroke:#3D4A3E;stroke-width:0.7813;"/><text fill="#000000" font-family="DejaVu Sans" font-size="20.3125" lengthAdjust="spacing" textLength="87.7068" x="597.5278" y="1240.9148">&#1057;&#1086;&#1079;&#1076;&#1072;&#1090;&#1100;</text><text fill="#000000" font-family="DejaVu Sans" font-size="20.3125" lengthAdjust="spacing" textLength="138.6566" x="572.0529" y="1264.5598">&#1088;&#1077;&#1087;&#1086;&#1079;&#1080;&#1090;&#1086;&#1088;&#1080;&#1081;</text></g><!--entity UC_Grant--><g class="entity" data-entity="UC_Grant" data-source-line="57" data-uid="ent0030" id="entity_UC_Grant"><ellipse cx="631.9998" cy="1386.1626" fill="#F7F4EC" rx="60.5154" ry="37.5786" style="stroke:#3D4A3E;stroke-width:0.7813;"/><text fill="#000000" font-family="DejaVu Sans" font-size="20.3125" lengthAdjust="spacing" textLength="80.2681" x="591.8657" y="1381.4754">&#1042;&#1099;&#1076;&#1072;&#1090;&#1100;</text><text fill="#000000" font-family="DejaVu Sans" font-size="20.3125" lengthAdjust="spacing" textLength="74.7734" x="594.6131" y="1405.1204">&#1076;&#1086;&#1089;&#1090;&#1091;&#1087;</text></g><!--entity UC_Nexus--><g class="entity" data-entity="UC_Nexus" data-source-line="58" data-uid="ent0031" id="entity_UC_Nexus"><ellipse cx="627.2162" cy="1487.0938" fill="#F7F4EC" rx="113.5443" ry="35.3848" style="stroke:#3D4A3E;stroke-width:0.7813;"/><text fill="#000000" font-family="DejaVu Sans" font-size="20.3125" lengthAdjust="spacing" textLength="167.6971" x="543.3676" y="1485.6936">&#1048;&#1084;&#1087;&#1086;&#1088;&#1090;&#1080;&#1088;&#1086;&#1074;&#1072;&#1090;&#1100;</text><text fill="#000000" font-family="DejaVu Sans" font-size="20.3125" lengthAdjust="spacing" textLength="93.6279" x="580.4023" y="1509.3386">&#1080;&#1079; Nexus</text></g><!--entity UC_Clean--><g class="entity" data-entity="UC_Clean" data-source-line="59" data-uid="ent0032" id="entity_UC_Clean"><ellipse cx="625.3559" cy="1587.0111" fill="#F7F4EC" rx="87.4653" ry="36.8646" style="stroke:#3D4A3E;stroke-width:0.7813;"/><text fill="#000000" font-family="DejaVu Sans" font-size="20.3125" lengthAdjust="spacing" textLength="101.1955" x="574.7581" y="1579.7211">&#1054;&#1095;&#1080;&#1089;&#1090;&#1080;&#1090;&#1100;</text><text fill="#000000" font-family="DejaVu Sans" font-size="20.3125" lengthAdjust="spacing" textLength="121.6568" x="564.5275" y="1603.3662">&#1093;&#1088;&#1072;&#1085;&#1080;&#1083;&#1080;&#1097;&#1077;</text></g><!--entity UC_VulnDb--><g class="entity" data-entity="UC_VulnDb" data-source-line="60" data-uid="ent0033" id="entity_UC_VulnDb"><ellipse cx="623.973" cy="1721.6336" fill="#F7F4EC" rx="112.6449" ry="37.1121" style="stroke:#3D4A3E;stroke-width:0.7813;"/><text fill="#000000" font-family="DejaVu Sans" font-size="20.3125" lengthAdjust="spacing" textLength="157.4516" x="545.2472" y="1717.6227">&#1054;&#1073;&#1085;&#1086;&#1074;&#1080;&#1090;&#1100; &#1073;&#1072;&#1079;&#1091;</text><text fill="#000000" font-family="DejaVu Sans" font-size="20.3125" lengthAdjust="spacing" textLength="136.6631" x="555.6415" y="1741.2678">&#1091;&#1103;&#1079;&#1074;&#1080;&#1084;&#1086;&#1089;&#1090;&#1077;&#1081;</text></g><!--entity UC_Backup--><g class="entity" data-entity="UC_Backup" data-source-line="61" data-uid="ent0034" id="entity_UC_Backup"><ellipse cx="612.6706" cy="1855.5104" fill="#F7F4EC" rx="127.1237" ry="35.0514" style="stroke:#3D4A3E;stroke-width:0.7813;"/><text fill="#000000" font-family="DejaVu Sans" font-size="20.3125" lengthAdjust="spacing" textLength="89.9582" x="567.6915" y="1845.4459">&#1057;&#1076;&#1077;&#1083;&#1072;&#1090;&#1100;</text><text fill="#000000" font-family="DejaVu Sans" font-size="20.3125" lengthAdjust="spacing" textLength="190.6876" x="517.3268" y="1869.0909">&#1088;&#1077;&#1079;&#1077;&#1088;&#1074;&#1085;&#1091;&#1102; &#1082;&#1086;&#1087;&#1080;&#1102;</text></g><!--entity UC_Ldap--><g class="entity" data-entity="UC_Ldap" data-source-line="62" data-uid="ent0035" id="entity_UC_Ldap"><ellipse cx="587.5994" cy="1988.8958" fill="#F7F4EC" rx="152.8338" ry="36.4056" style="stroke:#3D4A3E;stroke-width:0.7813;"/><text fill="#000000" font-family="DejaVu Sans" font-size="20.3125" lengthAdjust="spacing" textLength="167.6971" x="503.7508" y="1980.9232">&#1048;&#1084;&#1087;&#1086;&#1088;&#1090;&#1080;&#1088;&#1086;&#1074;&#1072;&#1090;&#1100;</text><text fill="#000000" font-family="DejaVu Sans" font-size="20.3125" lengthAdjust="spacing" textLength="220.8786" x="477.1601" y="2004.5682">&#1087;&#1086;&#1083;&#1100;&#1079;&#1086;&#1074;&#1072;&#1090;&#1077;&#1083;&#1077;&#1081; LDAP</text></g><!--entity UC_Acl--><g class="entity" data-entity="UC_Acl" data-source-line="64" data-uid="ent0036" id="entity_UC_Acl"><ellipse cx="371.0085" cy="500.3335" fill="#F7F4EC" rx="79.2116" ry="35.3433" style="stroke:#3D4A3E;stroke-width:0.7813;"/><text fill="#000000" font-family="DejaVu Sans" font-size="20.3125" lengthAdjust="spacing" textLength="114.962" x="313.5275" y="498.9985">&#1055;&#1088;&#1086;&#1074;&#1077;&#1088;&#1080;&#1090;&#1100;</text><text fill="#000000" font-family="DejaVu Sans" font-size="20.3125" lengthAdjust="spacing" textLength="63.0402" x="339.4884" y="522.6435">&#1087;&#1088;&#1072;&#1074;&#1072;</text></g><!--entity UC_Verdict--><g class="entity" data-entity="UC_Verdict" data-source-line="65" data-uid="ent0037" id="entity_UC_Verdict"><ellipse cx="403.7016" cy="641.2803" fill="#F7F4EC" rx="136.9047" ry="36.4463" style="stroke:#3D4A3E;stroke-width:0.7813;"/><text fill="#000000" font-family="DejaVu Sans" font-size="20.3125" lengthAdjust="spacing" textLength="196.8765" x="305.2633" y="638.2543">&#1055;&#1086;&#1083;&#1091;&#1095;&#1080;&#1090;&#1100; &#1074;&#1077;&#1088;&#1076;&#1080;&#1082;&#1090;</text><text fill="#000000" font-family="DejaVu Sans" font-size="20.3125" lengthAdjust="spacing" textLength="150.8064" x="328.2984" y="661.8994">&#1089;&#1082;&#1072;&#1085;&#1080;&#1088;&#1086;&#1074;&#1072;&#1085;&#1080;&#1103;</text></g><!--entity UC_Wait--><g class="entity" data-entity="UC_Wait" data-source-line="66" data-uid="ent0038" id="entity_UC_Wait"><ellipse cx="403.1951" cy="783.0046" fill="#F7F4EC" rx="87.9608" ry="36.7643" style="stroke:#3D4A3E;stroke-width:0.7813;"/><text fill="#000000" font-family="DejaVu Sans" font-size="20.3125" lengthAdjust="spacing" textLength="122.7676" x="341.8113" y="779.5051">&#1055;&#1086;&#1076;&#1086;&#1078;&#1076;&#1072;&#1090;&#1100;</text><text fill="#000000" font-family="DejaVu Sans" font-size="20.3125" lengthAdjust="spacing" textLength="100.2533" x="353.0685" y="803.1502">&#1087;&#1088;&#1086;&#1074;&#1077;&#1088;&#1082;&#1091;</text></g><!--entity UC_AuditWrite--><g class="entity" data-entity="UC_AuditWrite" data-source-line="67" data-uid="ent0039" id="entity_UC_AuditWrite"><ellipse cx="381.9589" cy="1487.175" fill="#F7F4EC" rx="116.7245" ry="35.466" style="stroke:#3D4A3E;stroke-width:0.7813;"/><text fill="#000000" font-family="DejaVu Sans" font-size="20.3125" lengthAdjust="spacing" textLength="99.3706" x="332.2736" y="1477.7649">&#1047;&#1072;&#1087;&#1080;&#1089;&#1072;&#1090;&#1100;</text><text fill="#000000" font-family="DejaVu Sans" font-size="20.3125" lengthAdjust="spacing" textLength="172.1405" x="295.8886" y="1501.4099">&#1089;&#1086;&#1073;&#1099;&#1090;&#1080;&#1077; &#1072;&#1091;&#1076;&#1080;&#1090;&#1072;</text></g><!--entity UC_Preview--><g class="entity" data-entity="UC_Preview" data-source-line="68" data-uid="ent0040" id="entity_UC_Preview"><ellipse cx="383.0417" cy="1722.3398" fill="#F7F4EC" rx="106.8698" ry="35.4746" style="stroke:#3D4A3E;stroke-width:0.7813;"/><text fill="#000000" font-family="DejaVu Sans" font-size="20.3125" lengthAdjust="spacing" textLength="156.9557" x="304.5638" y="1720.7992">&#1055;&#1088;&#1077;&#1076;&#1087;&#1088;&#1086;&#1089;&#1084;&#1086;&#1090;&#1088;</text><text fill="#000000" font-family="DejaVu Sans" font-size="20.3125" lengthAdjust="spacing" textLength="90.9103" x="337.5865" y="1744.4442">&#1082;&#1086;&#1088;&#1079;&#1080;&#1085;&#1099;</text></g><!--entity Client--><g class="entity" data-entity="Client" data-source-line="27" data-uid="ent0002" id="entity_Client"><ellipse cx="857.8156" cy="129.0527" fill="#F1F1F1" rx="12.5" ry="12.5" style="stroke:#181818;stroke-width:0.7813;"/><path d="M857.8156,141.5527 L857.8156,183.7402 M837.5031,154.0527 L878.1281,154.0527 M857.8156,183.7402 L837.5031,207.1777 M857.8156,183.7402 L878.1281,207.1777" fill="none" style="stroke:#181818;stroke-width:0.7813;"/><text fill="#000000" font-family="DejaVu Sans" font-size="20.3125" lengthAdjust="spacing" textLength="78.215" x="814.4531" y="228.376">&#1050;&#1083;&#1080;&#1077;&#1085;&#1090;</text><text fill="#000000" font-family="DejaVu Sans" font-size="20.3125" lengthAdjust="spacing" textLength="86.7249" x="814.4531" y="252.021">&#1087;&#1072;&#1082;&#1077;&#1090;&#1086;&#1074;</text></g><!--entity Dev--><g class="entity" data-entity="Dev" data-source-line="28" data-uid="ent0003" id="entity_Dev"><ellipse cx="858.5636" cy="297.8027" fill="#F1F1F1" rx="12.5" ry="12.5" style="stroke:#181818;stroke-width:0.7813;"/><path d="M858.5636,310.3027 L858.5636,352.4902 M838.2511,322.8027 L878.8761,322.8027 M858.5636,352.4902 L838.2511,375.9277 M858.5636,352.4902 L878.8761,375.9277" fill="none" style="stroke:#181818;stroke-width:0.7813;"/><text fill="#000000" font-family="DejaVu Sans" font-size="20.3125" lengthAdjust="spacing" textLength="135.096" x="791.0156" y="397.126">&#1056;&#1072;&#1079;&#1088;&#1072;&#1073;&#1086;&#1090;&#1095;&#1080;&#1082;</text></g><!--entity Robot--><g class="entity" data-entity="Robot" data-source-line="29" data-uid="ent0004" id="entity_Robot"><ellipse cx="950.6649" cy="454.834" fill="#F1F1F1" rx="12.5" ry="12.5" style="stroke:#181818;stroke-width:0.7813;"/><path d="M950.6649,467.334 L950.6649,509.5215 M930.3524,479.834 L970.9774,479.834 M950.6649,509.5215 L930.3524,532.959 M950.6649,509.5215 L970.9774,532.959" fill="none" style="stroke:#181818;stroke-width:0.7813;"/><text fill="#000000" font-family="DejaVu Sans" font-size="20.3125" lengthAdjust="spacing" textLength="89.6111" x="905.8594" y="554.1573">CI-&#1088;&#1086;&#1073;&#1086;&#1090;</text></g><!--entity Sec--><g class="entity" data-entity="Sec" data-source-line="30" data-uid="ent0005" id="entity_Sec"><ellipse cx="855.3253" cy="725.9277" fill="#F1F1F1" rx="12.5" ry="12.5" style="stroke:#181818;stroke-width:0.7813;"/><path d="M855.3253,738.4277 L855.3253,780.6152 M835.0128,750.9277 L875.6378,750.9277 M855.3253,780.6152 L835.0128,804.0527 M855.3253,780.6152 L875.6378,804.0527" fill="none" style="stroke:#181818;stroke-width:0.7813;"/><text fill="#000000" font-family="DejaVu Sans" font-size="20.3125" lengthAdjust="spacing" textLength="128.6194" x="791.0156" y="825.251">&#1057;&#1087;&#1077;&#1094;&#1080;&#1072;&#1083;&#1080;&#1089;&#1090;</text><text fill="#000000" font-family="DejaVu Sans" font-size="20.3125" lengthAdjust="spacing" textLength="29.1298" x="791.0156" y="848.896">&#1048;&#1041;</text></g><!--entity Owner--><g class="entity" data-entity="Owner" data-source-line="31" data-uid="ent0006" id="entity_Owner"><ellipse cx="844.4031" cy="1193.1152" fill="#F1F1F1" rx="12.5" ry="12.5" style="stroke:#181818;stroke-width:0.7813;"/><path d="M844.4031,1205.6152 L844.4031,1247.8027 M824.0906,1218.1152 L864.7156,1218.1152 M844.4031,1247.8027 L824.0906,1271.2402 M844.4031,1247.8027 L864.7156,1271.2402" fill="none" style="stroke:#181818;stroke-width:0.7813;"/><text fill="#000000" font-family="DejaVu Sans" font-size="20.3125" lengthAdjust="spacing" textLength="105.2124" x="791.7969" y="1292.4385">&#1042;&#1083;&#1072;&#1076;&#1077;&#1083;&#1077;&#1094;</text><text fill="#000000" font-family="DejaVu Sans" font-size="20.3125" lengthAdjust="spacing" textLength="95.4727" x="791.7969" y="1316.0835">(DevOps)</text></g><!--entity Admin--><g class="entity" data-entity="Admin" data-source-line="32" data-uid="ent0007" id="entity_Admin"><ellipse cx="875.2361" cy="1676.709" fill="#F1F1F1" rx="12.5" ry="12.5" style="stroke:#181818;stroke-width:0.7813;"/><path d="M875.2361,1689.209 L875.2361,1731.3965 M854.9236,1701.709 L895.5486,1701.709 M875.2361,1731.3965 L854.9236,1754.834 M875.2361,1731.3965 L895.5486,1754.834" fill="none" style="stroke:#181818;stroke-width:0.7813;"/><text fill="#000000" font-family="DejaVu Sans" font-size="20.3125" lengthAdjust="spacing" textLength="168.441" x="791.0156" y="1776.0323">&#1040;&#1076;&#1084;&#1080;&#1085;&#1080;&#1089;&#1090;&#1088;&#1072;&#1090;&#1086;&#1088;</text></g><!--entity Upstream--><g class="entity" data-entity="Upstream" data-source-line="34" data-uid="ent0008" id="entity_Upstream"><ellipse cx="165.7879" cy="443.1152" fill="#F1F1F1" rx="12.5" ry="12.5" style="stroke:#181818;stroke-width:0.7813;"/><path d="M165.7879,455.6152 L165.7879,497.8027 M145.4754,468.1152 L186.1004,468.1152 M165.7879,497.8027 L145.4754,521.2402 M165.7879,497.8027 L186.1004,521.2402" fill="none" style="stroke:#181818;stroke-width:0.7813;"/><text fill="#000000" font-family="DejaVu Sans" font-size="20.3125" lengthAdjust="spacing" textLength="97.982" x="116.7969" y="542.4385">&#1042;&#1085;&#1077;&#1096;&#1085;&#1080;&#1081;</text><text fill="#000000" font-family="DejaVu Sans" font-size="20.3125" lengthAdjust="spacing" textLength="78.3043" x="116.7969" y="566.0835">registry</text></g><!--entity Engines--><g class="entity" data-entity="Engines" data-source-line="35" data-uid="ent0009" id="entity_Engines"><ellipse cx="125.0412" cy="1664.9902" fill="#F1F1F1" rx="12.5" ry="12.5" style="stroke:#181818;stroke-width:0.7813;"/><path d="M125.0412,1677.4902 L125.0412,1719.6777 M104.7287,1689.9902 L145.3537,1689.9902 M125.0412,1719.6777 L104.7287,1743.1152 M125.0412,1719.6777 L145.3537,1743.1152" fill="none" style="stroke:#181818;stroke-width:0.7813;"/><text fill="#000000" font-family="DejaVu Sans" font-size="20.3125" lengthAdjust="spacing" textLength="93.6081" x="34.7656" y="1764.3135">&#1057;&#1082;&#1072;&#1085;&#1077;&#1088;&#1099;</text><text fill="#000000" font-family="DejaVu Sans" font-size="20.3125" lengthAdjust="spacing" textLength="180.5511" x="34.7656" y="1787.9585">Grype, Trivy, OSV</text></g><!--entity IdP--><g class="entity" data-entity="IdP" data-source-line="36" data-uid="ent0010" id="entity_IdP"><ellipse cx="153.3466" cy="1932.1777" fill="#F1F1F1" rx="12.5" ry="12.5" style="stroke:#181818;stroke-width:0.7813;"/><path d="M153.3466,1944.6777 L153.3466,1986.8652 M133.0341,1957.1777 L173.6591,1957.1777 M153.3466,1986.8652 L133.0341,2010.3027 M153.3466,1986.8652 L173.6591,2010.3027" fill="none" style="stroke:#181818;stroke-width:0.7813;"/><text fill="#000000" font-family="DejaVu Sans" font-size="20.3125" lengthAdjust="spacing" textLength="87.2307" x="91.0156" y="2031.501">&#1050;&#1072;&#1090;&#1072;&#1083;&#1086;&#1075;</text><text fill="#000000" font-family="DejaVu Sans" font-size="20.3125" lengthAdjust="spacing" textLength="124.662" x="91.0156" y="2055.146">LDAP / OIDC</text></g><g class="entity" data-entity="GMN78" data-source-line="113" data-uid="ent0079" id="entity_GMN78"><path d="M791.0156,606.3965 L791.0156,635.3027 L722.4688,641.5527 L791.0156,647.8027 L791.0156,677.3315 A7.8125,7.8125 0 0 0 798.8281,685.144 L1126.4061,685.144 A7.8125,7.8125 0 0 0 1134.2186,677.3315 L1134.2186,614.209 L1118.5936,598.584 L798.8281,598.584 A7.8125,7.8125 0 0 0 791.0156,606.3965" fill="#FEFFDD" style="stroke:#181818;stroke-width:0.7813;"/><path d="M1118.5936,598.584 L1118.5936,610.3027 A3.9063,3.9063 0 0 0 1122.4998,614.209 L1134.2186,614.209 L1118.5936,598.584" fill="#FEFFDD" style="stroke:#181818;stroke-width:0.7813;"/><text fill="#000000" font-family="DejaVu Sans" font-size="20.3125" lengthAdjust="spacing" textLength="310.3905" x="800.3906" y="625.251">&#1069;&#1090;&#1080;&#1084; &#1089;&#1094;&#1077;&#1085;&#1072;&#1088;&#1080;&#1077;&#1084; &#1087;&#1086;&#1083;&#1100;&#1079;&#1091;&#1102;&#1090;&#1089;&#1103;</text><text fill="#000000" font-family="DejaVu Sans" font-size="20.3125" lengthAdjust="spacing" textLength="208.0246" x="800.3906" y="648.896">&#1074;&#1089;&#1077; &#1083;&#1102;&#1076;&#1080; &#1085;&#1072; &#1089;&#1093;&#1077;&#1084;&#1077;.</text><text fill="#000000" font-family="DejaVu Sans" font-size="20.3125" lengthAdjust="spacing" textLength="283.7898" x="800.3906" y="672.541">CI-&#1088;&#1086;&#1073;&#1086;&#1090; &#1074; &#1089;&#1072;&#1081;&#1090; &#1085;&#1077; &#1074;&#1093;&#1086;&#1076;&#1080;&#1090;.</text></g><g class="entity" data-entity="GMN96" data-source-line="137" data-uid="ent0097" id="entity_GMN96"><path d="M1010.5469,440.7715 L1010.5469,494.6777 L995.2656,500.9277 L1010.5469,507.1777 L1010.5469,558.9966 A7.8125,7.8125 0 0 0 1018.3594,566.8091 L1310.9161,566.8091 A7.8125,7.8125 0 0 0 1318.7286,558.9966 L1318.7286,448.584 L1303.1036,432.959 L1018.3594,432.959 A7.8125,7.8125 0 0 0 1010.5469,440.7715" fill="#FEFFDD" style="stroke:#181818;stroke-width:0.7813;"/><path d="M1303.1036,432.959 L1303.1036,444.6777 A3.9063,3.9063 0 0 0 1307.0099,448.584 L1318.7286,448.584 L1303.1036,432.959" fill="#FEFFDD" style="stroke:#181818;stroke-width:0.7813;"/><text fill="#000000" font-family="DejaVu Sans" font-size="20.3125" lengthAdjust="spacing" textLength="189.6858" x="1019.9219" y="459.626">&#1042; &#1089;&#1072;&#1081;&#1090; &#1085;&#1077; &#1074;&#1093;&#1086;&#1076;&#1080;&#1090;.</text><text fill="#000000" font-family="DejaVu Sans" font-size="20.3125" lengthAdjust="spacing" textLength="262.1979" x="1019.9219" y="483.271">&#1058;&#1086;&#1083;&#1100;&#1082;&#1086; &#1090;&#1086;&#1082;&#1077;&#1085; pull / push.</text><text fill="#000000" font-family="DejaVu Sans" font-size="20.3125" lengthAdjust="spacing" textLength="275.3693" x="1019.9219" y="506.916">&#1057;&#1082;&#1072;&#1095;&#1080;&#1074;&#1072;&#1090;&#1100; &#1080; &#1087;&#1091;&#1073;&#1083;&#1080;&#1082;&#1086;&#1074;&#1072;&#1090;&#1100;</text><text fill="#000000" font-family="DejaVu Sans" font-size="20.3125" lengthAdjust="spacing" textLength="235.4881" x="1019.9219" y="530.5611">&#1084;&#1086;&#1078;&#1077;&#1090;, &#1087;&#1086;&#1090;&#1086;&#1084;&#1091; &#1095;&#1090;&#1086; &#1086;&#1085;</text><text fill="#000000" font-family="DejaVu Sans" font-size="20.3125" lengthAdjust="spacing" textLength="262.0689" x="1019.9219" y="554.2061">&#1090;&#1086;&#1078;&#1077; &#171;&#1082;&#1083;&#1080;&#1077;&#1085;&#1090; &#1087;&#1072;&#1082;&#1077;&#1090;&#1086;&#1074;&#187;.</text></g><!--link Client to Dev--><!--reverse link Client to Dev--><g class="link" data-entity-1="Client" data-entity-2="Dev" data-source-line="44" data-uid="lnk17" id="link_Client_Dev"><path d="M872.7813,284.9121 C872.7813,294.0371 872.7813,275.1621 872.7813,284.0684" fill="none" id="Client-backto-Dev" style="stroke:#181818;stroke-width:1.5625;"/><polygon fill="none" points="872.7813,256.7871,863.4063,284.9121,882.1563,284.9121,872.7813,256.7871" style="stroke:#181818;stroke-width:1.5625;"/></g><!--link Dev to Robot--><!--link Robot to Sec--><!--link Sec to Owner--><!--link Owner to Admin--><!--reverse link Client to Robot--><g class="link" data-entity-1="Client" data-entity-2="Robot" data-source-line="45" data-uid="lnk19" id="link_Client_Robot"><path d="M930.1562,186.8652 C957.7969,186.8652 960.1563,186.8652 960.1563,186.8652 C960.1563,186.8652 960.1563,350.4746 960.1563,441.2246" fill="none" id="Client-backto-Robot" style="stroke:#181818;stroke-width:1.5625;"/><polygon fill="none" points="902.0312,186.8652,930.1562,196.2402,930.1562,177.4902,902.0312,186.8652" style="stroke:#181818;stroke-width:1.5625;"/></g><!--link UC_Pull to UC_Push--><!--link UC_Push to UC_Gate--><!--link UC_Gate to UC_Login--><!--link UC_Login to UC_Finding--><!--link UC_Finding to UC_Trust--><!--link UC_Trust to UC_Finding--><g class="link" data-entity-1="UC_Trust" data-entity-2="UC_Finding" data-source-line="128" data-uid="lnk90" id="link_UC_Trust_UC_Finding"><path d="M662.1094,883.5371 C662.1094,862.8184 662.1094,845.6152 662.1094,824.9746" fill="none" id="UC_Trust-to-UC_Finding" style="stroke:#181818;stroke-width:1.5625;stroke-dasharray:10.9375,10.9375;"/><polygon fill="#181818" points="662.1094,815.5996,655.8594,829.6621,662.1094,823.4121,668.3594,829.6621,662.1094,815.5996" style="stroke:#181818;stroke-width:1.5625;"/><text fill="#000000" font-family="DejaVu Sans" font-size="20.3125" lengthAdjust="spacing" textLength="95.6017" x="726.7765" y="869.9854">&#171;extend&#187;</text><text fill="#000000" font-family="DejaVu Sans" font-size="20.3125" lengthAdjust="spacing" textLength="221.8109" x="663.6719" y="893.6304">[&#1085;&#1091;&#1078;&#1085;&#1086; &#1080;&#1089;&#1082;&#1083;&#1102;&#1095;&#1077;&#1085;&#1080;&#1077;]</text></g><!--link UC_Trust to UC_Policy--><!--link UC_Policy to UC_Audit--><!--link UC_Audit to UC_Repo--><!--link UC_Repo to UC_Grant--><!--link UC_Grant to UC_Nexus--><!--link UC_Nexus to UC_Clean--><!--link UC_Clean to UC_VulnDb--><!--link UC_VulnDb to UC_Backup--><!--link UC_Backup to UC_Ldap--><!--link UC_Pull to UC_Acl--><!--link UC_Pull to UC_Acl--><g class="link" data-entity-1="UC_Pull" data-entity-2="UC_Acl" data-source-line="118" data-uid="lnk81" id="link_UC_Pull_UC_Acl"><path d="M355.7031,222.1152 C355.7031,283.0215 355.7031,396.1621 355.7031,456.1152" fill="none" id="UC_Pull-to-UC_Acl" style="stroke:#181818;stroke-width:1.5625;stroke-dasharray:10.9375,10.9375;"/><polygon fill="#181818" points="355.7031,465.4902,361.9531,451.4277,355.7031,457.6777,349.4531,451.4277,355.7031,465.4902" style="stroke:#181818;stroke-width:1.5625;"/><text fill="#000000" font-family="DejaVu Sans" font-size="20.3125" lengthAdjust="spacing" textLength="98.4482" x="255.7031" y="337.6573">&#171;include&#187;</text></g><!--link UC_Acl to UC_Verdict--><!--link UC_Verdict to UC_Wait--><!--link UC_Wait to UC_AuditWrite--><!--link UC_AuditWrite to UC_Preview--><!--link Upstream to Engines--><!--link Engines to IdP--><!--link UC_Acl to Upstream--><!--link Client to UC_Pull--><g class="link" data-entity-1="Client" data-entity-2="UC_Pull" data-source-line="96" data-uid="lnk63" id="link_Client_UC_Pull"><path d="M814.0781,186.8652 C730.6406,186.8652 558.25,186.8652 455.2344,186.8652" fill="none" id="Client-to-UC_Pull" style="stroke:#181818;stroke-width:1.5625;"/><polygon fill="#181818" points="445.8594,186.8652,459.9219,193.1152,453.6719,186.8652,459.9219,180.6152,445.8594,186.8652" style="stroke:#181818;stroke-width:1.5625;"/></g><!--link Client to UC_Push--><g class="link" data-entity-1="Client" data-entity-2="UC_Push" data-source-line="97" data-uid="lnk64" id="link_Client_UC_Push"><path d="M814.3594,239.9902 C743.0313,239.9902 609.7656,239.9902 609.7656,239.9902 C609.7656,239.9902 609.7656,267.9277 609.7656,297.6777" fill="none" id="Client-to-UC_Push" style="stroke:#181818;stroke-width:1.5625;"/><polygon fill="#181818" points="609.7656,307.0527,616.0156,292.9902,609.7656,299.2402,603.5156,292.9902,609.7656,307.0527" style="stroke:#181818;stroke-width:1.5625;"/></g><!--link Dev to UC_Gate--><g class="link" data-entity-1="Dev" data-entity-2="UC_Gate" data-source-line="98" data-uid="lnk65" id="link_Dev_UC_Gate"><path d="M790.875,394.6777 C759.1406,394.6777 728.125,394.6777 728.125,394.6777 C728.125,394.6777 728.125,444.6309 728.125,474.2871" fill="none" id="Dev-to-UC_Gate" style="stroke:#181818;stroke-width:1.5625;"/><polygon fill="#181818" points="728.125,483.6621,734.375,469.5996,728.125,475.8496,721.875,469.5996,728.125,483.6621" style="stroke:#181818;stroke-width:1.5625;"/></g><!--link Dev to UC_Login--><g class="link" data-entity-1="Dev" data-entity-2="UC_Login" data-source-line="99" data-uid="lnk66" id="link_Dev_UC_Login"><path d="M790.7188,386.8652 C776.6563,386.8652 766.0156,386.8652 766.0156,386.8652 C766.0156,386.8652 766.0156,624.3652 766.0156,624.3652 C766.0156,624.3652 750.0625,624.3652 722.9688,624.3652" fill="none" id="Dev-to-UC_Login" style="stroke:#181818;stroke-width:1.5625;"/><polygon fill="#181818" points="713.5938,624.3652,727.6563,630.6152,721.4063,624.3652,727.6563,618.1152,713.5938,624.3652" style="stroke:#181818;stroke-width:1.5625;"/></g><!--link Sec to UC_Finding--><g class="link" data-entity-1="Sec" data-entity-2="UC_Finding" data-source-line="100" data-uid="lnk67" id="link_Sec_UC_Finding"><path d="M790.8125,783.7402 C764.9844,783.7402 744.1406,783.7402 716.2344,783.7402" fill="none" id="Sec-to-UC_Finding" style="stroke:#181818;stroke-width:1.5625;"/><polygon fill="#181818" points="706.8594,783.7402,720.9219,789.9902,714.6719,783.7402,720.9219,777.4902,706.8594,783.7402" style="stroke:#181818;stroke-width:1.5625;"/></g><!--link Sec to UC_Trust--><g class="link" data-entity-1="Sec" data-entity-2="UC_Trust" data-source-line="101" data-uid="lnk68" id="link_Sec_UC_Trust"><path d="M790.5781,843.1152 C760.1719,843.1152 730.4688,843.1152 730.4688,843.1152 C730.4688,843.1152 730.4688,873.3496 730.4688,894.3809" fill="none" id="Sec-to-UC_Trust" style="stroke:#181818;stroke-width:1.5625;"/><polygon fill="#181818" points="730.4688,903.7559,736.7188,889.6934,730.4688,895.9434,724.2188,889.6934,730.4688,903.7559" style="stroke:#181818;stroke-width:1.5625;"/></g><!--link Sec to UC_Policy--><g class="link" data-entity-1="Sec" data-entity-2="UC_Policy" data-source-line="102" data-uid="lnk69" id="link_Sec_UC_Policy"><path d="M817.9688,853.6777 C817.9688,922.4277 817.9688,1016.5527 817.9688,1016.5527 C817.9688,1016.5527 791.7344,1016.5527 750.4219,1016.5527" fill="none" id="Sec-to-UC_Policy" style="stroke:#181818;stroke-width:1.5625;"/><polygon fill="#181818" points="741.0469,1016.5527,755.1094,1022.8027,748.8594,1016.5527,755.1094,1010.3027,741.0469,1016.5527" style="stroke:#181818;stroke-width:1.5625;"/></g><!--link Sec to UC_Audit--><g class="link" data-entity-1="Sec" data-entity-2="UC_Audit" data-source-line="103" data-uid="lnk70" id="link_Sec_UC_Audit"><path d="M844.1406,853.3027 C844.1406,951.1777 844.1406,1116.5527 844.1406,1116.5527 C844.1406,1116.5527 780.9531,1116.5527 722.5781,1116.5527" fill="none" id="Sec-to-UC_Audit" style="stroke:#181818;stroke-width:1.5625;"/><polygon fill="#181818" points="713.2031,1116.5527,727.2656,1122.8027,721.0156,1116.5527,727.2656,1110.3027,713.2031,1116.5527" style="stroke:#181818;stroke-width:1.5625;"/></g><!--link Owner to UC_Repo--><g class="link" data-entity-1="Owner" data-entity-2="UC_Repo" data-source-line="104" data-uid="lnk71" id="link_Owner_UC_Repo"><path d="M791.2969,1250.9277 C774.5,1250.9277 764.7188,1250.9277 745.8594,1250.9277" fill="none" id="Owner-to-UC_Repo" style="stroke:#181818;stroke-width:1.5625;"/><polygon fill="#181818" points="736.4844,1250.9277,750.5469,1257.1777,744.2969,1250.9277,750.5469,1244.6777,736.4844,1250.9277" style="stroke:#181818;stroke-width:1.5625;"/></g><!--link Owner to UC_Grant--><g class="link" data-entity-1="Owner" data-entity-2="UC_Grant" data-source-line="105" data-uid="lnk72" id="link_Owner_UC_Grant"><path d="M791.5469,1297.8027 C734.5781,1297.8027 651.6875,1297.8027 651.6875,1297.8027 C651.6875,1297.8027 651.6875,1316.7559 651.6875,1341.3027" fill="none" id="Owner-to-UC_Grant" style="stroke:#181818;stroke-width:1.5625;"/><polygon fill="#181818" points="651.6875,1350.6777,657.9375,1336.6152,651.6875,1342.8652,645.4375,1336.6152,651.6875,1350.6777" style="stroke:#181818;stroke-width:1.5625;"/></g><!--link Owner to UC_Nexus--><g class="link" data-entity-1="Owner" data-entity-2="UC_Nexus" data-source-line="106" data-uid="lnk73" id="link_Owner_UC_Nexus"><path d="M791.2344,1310.3027 C755.2188,1310.3027 714.0625,1310.3027 714.0625,1310.3027 C714.0625,1310.3027 714.0625,1406.5527 714.0625,1454.4121" fill="none" id="Owner-to-UC_Nexus" style="stroke:#181818;stroke-width:1.5625;"/><polygon fill="#181818" points="714.0625,1463.7871,720.3125,1449.7246,714.0625,1455.9746,707.8125,1449.7246,714.0625,1463.7871" style="stroke:#181818;stroke-width:1.5625;"/></g><!--link Owner to UC_Clean--><g class="link" data-entity-1="Owner" data-entity-2="UC_Clean" data-source-line="107" data-uid="lnk74" id="link_Owner_UC_Clean"><path d="M826.6875,1320.7402 C826.6875,1419.4746 826.6875,1586.8652 826.6875,1586.8652 C826.6875,1586.8652 776.7188,1586.8652 722.4688,1586.8652" fill="none" id="Owner-to-UC_Clean" style="stroke:#181818;stroke-width:1.5625;"/><polygon fill="#181818" points="713.0938,1586.8652,727.1563,1593.1152,720.9063,1586.8652,727.1563,1580.6152,713.0938,1586.8652" style="stroke:#181818;stroke-width:1.5625;"/></g><!--link Admin to UC_VulnDb--><g class="link" data-entity-1="Admin" data-entity-2="UC_VulnDb" data-source-line="108" data-uid="lnk75" id="link_Admin_UC_VulnDb"><path d="M790.9219,1722.8027 C773.5156,1722.8027 764.2813,1722.8027 746.0469,1722.8027" fill="none" id="Admin-to-UC_VulnDb" style="stroke:#181818;stroke-width:1.5625;"/><polygon fill="#181818" points="736.6719,1722.8027,750.7344,1729.0527,744.4844,1722.8027,750.7344,1716.5527,736.6719,1722.8027" style="stroke:#181818;stroke-width:1.5625;"/></g><!--link Admin to UC_Backup--><g class="link" data-entity-1="Admin" data-entity-2="UC_Backup" data-source-line="109" data-uid="lnk76" id="link_Admin_UC_Backup"><path d="M847.2656,1781.0059 C847.2656,1816.7871 847.2656,1855.6152 847.2656,1855.6152 C847.2656,1855.6152 804.7188,1855.6152 749.7344,1855.6152" fill="none" id="Admin-to-UC_Backup" style="stroke:#181818;stroke-width:1.5625;"/><polygon fill="#181818" points="740.3594,1855.6152,754.4219,1861.8652,748.1719,1855.6152,754.4219,1849.3652,740.3594,1855.6152" style="stroke:#181818;stroke-width:1.5625;"/></g><!--link Admin to UC_Ldap--><g class="link" data-entity-1="Admin" data-entity-2="UC_Ldap" data-source-line="110" data-uid="lnk77" id="link_Admin_UC_Ldap"><path d="M903.5156,1780.834 C903.5156,1859.709 903.5156,1989.9902 903.5156,1989.9902 C903.5156,1989.9902 830.875,1989.9902 750.4531,1989.9902" fill="none" id="Admin-to-UC_Ldap" style="stroke:#181818;stroke-width:1.5625;"/><polygon fill="#181818" points="741.0781,1989.9902,755.1406,1996.2402,748.8906,1989.9902,755.1406,1983.7402,741.0781,1989.9902" style="stroke:#181818;stroke-width:1.5625;"/></g><!--link UC_Push to UC_Acl--><g class="link" data-entity-1="UC_Push" data-entity-2="UC_Acl" data-source-line="119" data-uid="lnk82" id="link_UC_Push_UC_Acl"><path d="M504.2969,343.1152 C446.1875,343.1152 385.7031,343.1152 385.7031,343.1152 C385.7031,343.1152 385.7031,409.6621 385.7031,455.9277" fill="none" id="UC_Push-to-UC_Acl" style="stroke:#181818;stroke-width:1.5625;stroke-dasharray:10.9375,10.9375;"/><polygon fill="#181818" points="385.7031,465.3027,391.9531,451.2402,385.7031,457.4902,379.4531,451.2402,385.7031,465.3027" style="stroke:#181818;stroke-width:1.5625;"/><text fill="#000000" font-family="DejaVu Sans" font-size="20.3125" lengthAdjust="spacing" textLength="98.4482" x="285.7031" y="365.3291">&#171;include&#187;</text></g><!--link UC_Pull to UC_Verdict--><g class="link" data-entity-1="UC_Pull" data-entity-2="UC_Verdict" data-source-line="120" data-uid="lnk83" id="link_UC_Pull_UC_Verdict"><path d="M306.7188,205.6152 C291.3594,205.6152 279.2969,205.6152 279.2969,205.6152 C279.2969,205.6152 279.2969,539.0059 279.2969,616.6621" fill="none" id="UC_Pull-to-UC_Verdict" style="stroke:#181818;stroke-width:1.5625;stroke-dasharray:10.9375,10.9375;"/><polygon fill="#181818" points="279.2969,626.0371,285.5469,611.9746,279.2969,618.2246,273.0469,611.9746,279.2969,626.0371" style="stroke:#181818;stroke-width:1.5625;"/><text fill="#000000" font-family="DejaVu Sans" font-size="20.3125" lengthAdjust="spacing" textLength="98.4482" x="179.2969" y="395.9698">&#171;include&#187;</text></g><!--link UC_Push to UC_Verdict--><g class="link" data-entity-1="UC_Push" data-entity-2="UC_Verdict" data-source-line="121" data-uid="lnk84" id="link_UC_Push_UC_Verdict"><path d="M519.4375,361.8652 C495.6875,361.8652 476.5625,361.8652 476.5625,361.8652 C476.5625,361.8652 476.5625,527.4902 476.5625,600.6309" fill="none" id="UC_Push-to-UC_Verdict" style="stroke:#181818;stroke-width:1.5625;stroke-dasharray:10.9375,10.9375;"/><polygon fill="#181818" points="476.5625,610.0059,482.8125,595.9434,476.5625,602.1934,470.3125,595.9434,476.5625,610.0059" style="stroke:#181818;stroke-width:1.5625;"/><text fill="#000000" font-family="DejaVu Sans" font-size="20.3125" lengthAdjust="spacing" textLength="98.4482" x="376.5625" y="458.3604">&#171;include&#187;</text></g><!--link UC_Clean to UC_Preview--><g class="link" data-entity-1="UC_Clean" data-entity-2="UC_Preview" data-source-line="122" data-uid="lnk85" id="link_UC_Clean_UC_Preview"><path d="M537.8125,1586.8652 C481.5313,1586.8652 418.875,1586.8652 418.875,1586.8652 C418.875,1586.8652 418.875,1639.209 418.875,1679.2402" fill="none" id="UC_Clean-to-UC_Preview" style="stroke:#181818;stroke-width:1.5625;stroke-dasharray:10.9375,10.9375;"/><polygon fill="#181818" points="418.875,1688.6152,425.125,1674.5527,418.875,1680.8027,412.625,1674.5527,418.875,1688.6152" style="stroke:#181818;stroke-width:1.5625;"/><text fill="#000000" font-family="DejaVu Sans" font-size="20.3125" lengthAdjust="spacing" textLength="98.4482" x="327.4688" y="1580.7198">&#171;include&#187;</text></g><!--link UC_Finding to UC_AuditWrite--><g class="link" data-entity-1="UC_Finding" data-entity-2="UC_AuditWrite" data-source-line="123" data-uid="lnk86" id="link_UC_Finding_UC_AuditWrite"><path d="M573.0469,815.5215 C573.0469,824.6621 573.0469,832.1777 573.0469,832.1777 C573.0469,832.1777 385.5469,832.1777 385.5469,832.1777 C385.5469,832.1777 385.5469,1306.3027 385.5469,1442.2871" fill="none" id="UC_Finding-to-UC_AuditWrite" style="stroke:#181818;stroke-width:1.5625;stroke-dasharray:10.9375,10.9375;"/><polygon fill="#181818" points="385.5469,1451.6621,391.7969,1437.5996,385.5469,1443.8496,379.2969,1437.5996,385.5469,1451.6621" style="stroke:#181818;stroke-width:1.5625;"/><text fill="#000000" font-family="DejaVu Sans" font-size="20.3125" lengthAdjust="spacing" textLength="98.4482" x="285.5469" y="1033.6885">&#171;include&#187;</text></g><!--link UC_Grant to UC_AuditWrite--><g class="link" data-entity-1="UC_Grant" data-entity-2="UC_AuditWrite" data-source-line="124" data-uid="lnk87" id="link_UC_Grant_UC_AuditWrite"><path d="M571.1406,1386.8652 C520.2969,1386.8652 455.8594,1386.8652 455.8594,1386.8652 C455.8594,1386.8652 455.8594,1420.5527 455.8594,1450.1621" fill="none" id="UC_Grant-to-UC_AuditWrite" style="stroke:#181818;stroke-width:1.5625;stroke-dasharray:10.9375,10.9375;"/><polygon fill="#181818" points="455.8594,1459.5371,462.1094,1445.4746,455.8594,1451.7246,449.6094,1445.4746,455.8594,1459.5371" style="stroke:#181818;stroke-width:1.5625;"/><text fill="#000000" font-family="DejaVu Sans" font-size="20.3125" lengthAdjust="spacing" textLength="98.4482" x="377.1719" y="1380.7198">&#171;include&#187;</text></g><!--link UC_Trust to UC_AuditWrite--><g class="link" data-entity-1="UC_Trust" data-entity-2="UC_AuditWrite" data-source-line="125" data-uid="lnk88" id="link_UC_Trust_UC_AuditWrite"><path d="M496.25,916.5527 C455.75,916.5527 420.7031,916.5527 420.7031,916.5527 C420.7031,916.5527 420.7031,1322.6465 420.7031,1444.3652" fill="none" id="UC_Trust-to-UC_AuditWrite" style="stroke:#181818;stroke-width:1.5625;stroke-dasharray:10.9375,10.9375;"/><polygon fill="#181818" points="420.7031,1453.7402,426.9531,1439.6777,420.7031,1445.9277,414.4531,1439.6777,420.7031,1453.7402" style="stroke:#181818;stroke-width:1.5625;"/><text fill="#000000" font-family="DejaVu Sans" font-size="20.3125" lengthAdjust="spacing" textLength="98.4482" x="320.7031" y="1141.2198">&#171;include&#187;</text></g><!--link UC_Wait to UC_Pull--><g class="link" data-entity-1="UC_Wait" data-entity-2="UC_Pull" data-source-line="127" data-uid="lnk89" id="link_UC_Wait_UC_Pull"><path d="M314.9219,783.7402 C276.7188,783.7402 240.625,783.7402 240.625,783.7402 C240.625,783.7402 240.625,186.8652 240.625,186.8652 C240.625,186.8652 257.0469,186.8652 285.6563,186.8652" fill="none" id="UC_Wait-to-UC_Pull" style="stroke:#181818;stroke-width:1.5625;stroke-dasharray:10.9375,10.9375;"/><polygon fill="#181818" points="295.0313,186.8652,280.9688,180.6152,287.2188,186.8652,280.9688,193.1152,295.0313,186.8652" style="stroke:#181818;stroke-width:1.5625;"/><text fill="#000000" font-family="DejaVu Sans" font-size="20.3125" lengthAdjust="spacing" textLength="95.6017" x="77.4441" y="465.6573">&#171;extend&#187;</text><text fill="#000000" font-family="DejaVu Sans" font-size="20.3125" lengthAdjust="spacing" textLength="228.6148" x="10.9375" y="489.3023">[pending &#1080; &#1085;&#1077; Docker]</text></g><!--link UC_Pull to Upstream--><g class="link" data-entity-1="UC_Pull" data-entity-2="Upstream" data-source-line="130" data-uid="lnk91" id="link_UC_Pull_Upstream"><path d="M304.8125,168.1152 C244.9688,168.1152 166.0156,168.1152 166.0156,168.1152 C166.0156,168.1152 166.0156,322.8965 166.0156,420.3496" fill="none" id="UC_Pull-to-Upstream" style="stroke:#181818;stroke-width:1.5625;"/><polygon fill="#181818" points="166.0156,429.7246,172.2656,415.6621,166.0156,421.9121,159.7656,415.6621,166.0156,429.7246" style="stroke:#181818;stroke-width:1.5625;"/></g><!--link UC_Verdict to Engines--><g class="link" data-entity-1="UC_Verdict" data-entity-2="Engines" data-source-line="131" data-uid="lnk92" id="link_UC_Verdict_Engines"><path d="M266.6406,641.5527 C221.4062,641.5527 182.4219,641.5527 182.4219,641.5527 C182.4219,641.5527 182.4219,1402.2715 182.4219,1642.1777" fill="none" id="UC_Verdict-to-Engines" style="stroke:#181818;stroke-width:1.5625;"/><polygon fill="#181818" points="182.4219,1651.5527,188.6719,1637.4902,182.4219,1643.7402,176.1719,1637.4902,182.4219,1651.5527" style="stroke:#181818;stroke-width:1.5625;"/></g><!--link UC_VulnDb to Engines--><g class="link" data-entity-1="UC_VulnDb" data-entity-2="Engines" data-source-line="132" data-uid="lnk93" id="link_UC_VulnDb_Engines"><path d="M525.7813,1703.1934 C525.7813,1689.8652 525.7813,1674.3652 525.7813,1674.3652 C525.7813,1674.3652 343.75,1674.3652 225.625,1674.3652" fill="none" id="UC_VulnDb-to-Engines" style="stroke:#181818;stroke-width:1.5625;"/><polygon fill="#181818" points="216.25,1674.3652,230.3125,1680.6152,224.0625,1674.3652,230.3125,1668.1152,216.25,1674.3652" style="stroke:#181818;stroke-width:1.5625;"/></g><!--link UC_Login to IdP--><g class="link" data-entity-1="UC_Login" data-entity-2="IdP" data-source-line="133" data-uid="lnk94" id="link_UC_Login_IdP"><path d="M711.5313,660.3027 C733.8281,660.3027 753.5156,660.3027 753.5156,660.3027 C753.5156,660.3027 753.5156,1936.8652 753.5156,1936.8652 C753.5156,1936.8652 379.0781,1936.8652 225.4063,1936.8652" fill="none" id="UC_Login-to-IdP" style="stroke:#181818;stroke-width:1.5625;"/><polygon fill="#181818" points="216.0313,1936.8652,230.0938,1943.1152,223.8438,1936.8652,230.0938,1930.6152,216.0313,1936.8652" style="stroke:#181818;stroke-width:1.5625;"/></g><!--link UC_Ldap to IdP--><g class="link" data-entity-1="UC_Ldap" data-entity-2="IdP" data-source-line="134" data-uid="lnk95" id="link_UC_Ldap_IdP"><path d="M434.75,1989.9902 C359.5156,1989.9902 282.4063,1989.9902 225.4219,1989.9902" fill="none" id="UC_Ldap-to-IdP" style="stroke:#181818;stroke-width:1.5625;"/><polygon fill="#181818" points="216.0469,1989.9902,230.1094,1996.2402,223.8594,1989.9902,230.1094,1983.7402,216.0469,1989.9902" style="stroke:#181818;stroke-width:1.5625;"/></g><g class="legend" data-source-line="144"><rect fill="#DDDDDD" height="66.5527" rx="7.8125" ry="7.8125" style="stroke:#000000;stroke-width:1.5625;" width="437.1246" x="435.3333" y="2085.6148"/><text fill="#000000" font-family="DejaVu Sans" font-size="21.875" lengthAdjust="spacing" textLength="349.0067" x="443.1458" y="2113.7321">&#171;include&#187; &#1074;&#1099;&#1087;&#1086;&#1083;&#1085;&#1103;&#1077;&#1090;&#1089;&#1103; &#1074;&#1089;&#1077;&#1075;&#1076;&#1072;</text><text fill="#000000" font-family="DejaVu Sans" font-size="21.875" lengthAdjust="spacing" textLength="421.4996" x="443.1458" y="2139.196">&#171;extend&#187; &#1076;&#1086;&#1087;&#1086;&#1083;&#1085;&#1080;&#1090;&#1077;&#1083;&#1100;&#1085;&#1099;&#1077; &#1076;&#1077;&#1081;&#1089;&#1090;&#1074;&#1080;&#1103;</text></g><!--SRC=[ZLXjRnD74Fv-ls8LFW1IOXf2LOIGfM0d28cIYF3o0QFgy2tEDSwUTNS6Ka1AS2cjWfA2Ae4gjPH-hIev1ZUEtoBn2-x-KMTcT-_Dbu0YstkppypkpZmpEvUJBFWjw0Nju4Eu2Tz3-6kpu10Ukk5FGJVu29zH-2mO1nssmgibr_GvEtNpswlixEc2SP85lyFK03wZe1_qBh1W4Ew0KeyzOQG_e27CxuMxmNxG1bCW35-2qUsWos0Mbm8Dq8Rdy6VSYjJfWCqk24PoPYleXLkaFWot2uRXhTcYORhcEhFuVRDPznSTuLyprpahy-_DMqssOWelWV9MJSjvQ8iQks_MFPxKRzXizkkl4XBNQGghwhY2ksmsEI4SYtkyaHQwfbWZuVc4i6uBxcyqE7DSVzL9RhVfyQhfSVROOEoIMLshqMebf-wuxCJYDuld5aeuuxWMTvLqhdnkVcu1f7Z65Vi7pcRdZAS9csRL1zpZOn0kh_gcgDMFMlSI_9q_OjsdXk7RFgX-CLSg8dX3WNv5WJv01dH0Py0-_HEyXs2tmnT8Xl0bWvzD36lu8yptmsUV1aY9DiIx3nFRg1RkXC-00E5p6NmsMpWx3LzpI9_PmZd3aCUV0Z8Ea2ou2zZ18He4mxIZAMPwh5ItkV0Z-5y0sAUpx0LZsCmBKEuJiCmVQ5JfoWn0nX92azUTUqviv3siW-T7nmmaHs7jjy4hmaBEHCZNCDycBmrGeo9EmJ9B3Uyq8PSU0jiYxA-06uBDaRH87e5pX9k4dRVMRM4a3CUPSb0HBg_Pdkzk4FHc0uRSN4_i5xnF2k3TYhZi0acdsGtNVh0npPPMRf7MWgW1Vxs4Ot7vDcNwXuguMfvVPcVOqfLoYU1Nh6N3aCvbCtTMRSlYuYvacvWXJy8dAvO-fE_i5BeCFbcnz0zzPwUKEsYPPcFcIL47MjbFoOmu4wPqHPkYfD29EPLcA4GpGr7fsD9toyrwdPqebHTAfVCf_JyXArh066HZNrB_SvQyrPI5TyIv3aO9641vSaZq6LL4sA92Y45425HERUOod2LbvZKW3W3RWwKxwHhQqafN7OXrIeloWchsfjuuh8drkmC76W8DaP8ljO55MrXGLzFxbo0mrD7x7r8gziDMHVXkq_EvfGtSmCUK-XzO08Zsu_ZuOte4-f5dntXmvQM42vQTkbtTo4HpIEcDTKf7eOMNLEp_-QPb-ncbCPptOtH-lAKEITQJYOYvfjMlyuQJzZiKhaWNHj9ZhU0mYXHS6ka5ty8kwOmOBdKkRQ0NxBDh_57Jq-hqaAOSLYzoUK_j-3bLDgm9M9P-2RfQkLJdfiZmTK-HIJbxZofZAo_ku8VetBUQTL6-b_6RB719l-qJZU4-1sixZ3BY45RQqMRmDcesljWR60Pi8VQrL5PKk6MmBaMqjio6SNnEeIro4bY9c52jPuaCYxN8k-GQgVyHCnihFTvJqirwbpJUZLp4NSkk-XCsWHF1VmcE72Osru-JyxQPuUKRM02TjnLvU8ioTHiTXHrLnEt4cP3TjrqxKnpUgTQBbWOpAajWCtqY-3xUF-5sb5akVs3pX-XJNVioTJWkP6gK0r0bIero0BeSwM4E92uuyKCEJ9SLFSpRhguMqJW7f8k37kP0L05GexnZgtpNmno8pcazp87epDN374YKaj4u1nGbN3JE2uHAe8bWktPjrP-9aqKEylOISJz-o84fZglHKG7G_4qzvuLKqHIQLjtxP56wkr6_sMdiPh9dqcVMtLJKxSY9elPIlXnoWfgJX93o82kKtAVc9o7LTC_A9R-pKaNfh5YIMBLF2JanTr8i-JefboITb4jcKYEMaYiwJaue2avEIDe91u9BKkRSJvQ5u5ygT4Dy7y2NZX6sLDJq3rbyC-150xLiAzn5bGuKjsxyQeewqUj4q2q09DNaCzagjR5pGd0NBJodcWrbjM1mOJ7Sds7er2WKYZeBBh2B5srHhJSjNYmQkWuU3uWjw2GvrigH85aJ54hbmIHA5qozfpYP9g2oL7q1KDRNpm4DdU9wYtXoXF17FZYrMAo8EmqkToVZr6Lbfxh6tRiJY-XJPDInnu1x5PePHfTa7wCEbtTN_XlXRXopc7CwfvD5Ia_gKf6efZbJwgBICwg089FJmWojvKiG4FJriNm3mD-As70nCtgVxUE9M0CFSWP-l5M2wVUMdkwMo8svxo887r8F0atnj6olqJ2y6B3m1GxndNq4C18335_T-_4BDak_NtyQ91EZpclu0CVpdNMmaM017cvRPYgOsQMU7F9KPMdm0NiYqj1HPTGhAGLgR5B_GS9syu0QK-nUTt4JSdNZVm00]--></g></svg>